<svg width="41" height="32" viewBox="0 0 41 32" fill="none" xmlns="http://www.w3.org/2000/svg">
<path d="M37.6551 0.728027H3.94948C1.62619 0.728027 0.905151 0.887472 0.905151 3.21076V28.9024C0.905151 31.2257 1.62619 31.8352 3.94948 31.8352H37.6509C39.9742 31.8352 40.3368 31.2257 40.3368 28.9024V3.62631C40.3368 1.30302 39.9784 0.728027 37.6551 0.728027ZM37.6509 3.62631V6.27767L20.8002 18.9834L3.94948 6.27767V3.62631H37.6509ZM3.94948 28.9024V10.038L19.5069 22.1389C19.886 22.4359 20.3431 22.5834 20.8002 22.5834C21.2573 22.5834 21.7143 22.4359 22.0935 22.1389L37.6509 10.038L37.6551 28.9024H3.94948Z" fill="black"/>
</svg>
