<svg width="35" height="35" viewBox="0 0 35 35" fill="none" xmlns="http://www.w3.org/2000/svg">
<path d="M17.0525 8.28711C12.2118 8.28711 8.29028 12.2105 8.29028 17.0493C8.29028 21.8901 12.2118 25.8134 17.0525 25.8134C21.8894 25.8134 25.8147 21.8901 25.8147 17.0493C25.8147 12.2105 21.8894 8.28711 17.0525 8.28711ZM17.0525 22.743C13.9081 22.743 11.3589 20.1937 11.3589 17.0512C11.3589 13.9068 13.9081 11.3595 17.0525 11.3595C20.1969 11.3595 22.7424 13.9068 22.7424 17.0512C22.7424 20.1937 20.1969 22.743 17.0525 22.743Z" fill="black"/>
<path d="M26.1634 10.0078C27.2919 10.0078 28.2066 9.093 28.2066 7.96458C28.2066 6.83615 27.2919 5.92139 26.1634 5.92139C25.035 5.92139 24.1202 6.83615 24.1202 7.96458C24.1202 9.093 25.035 10.0078 26.1634 10.0078Z" fill="black"/>
<path d="M33.2274 5.88697C32.3385 3.59549 30.5285 1.78353 28.237 0.898398C26.9121 0.39992 25.5115 0.132675 24.0937 0.102349C22.2685 0.0227441 21.6904 0 17.062 0C12.4335 0 11.8403 -1.9064e-07 10.0302 0.102349C8.61628 0.130779 7.21561 0.398024 5.89076 0.898398C3.59738 1.78353 1.78732 3.59549 0.900293 5.88697C0.401815 7.21372 0.13457 8.61249 0.10614 10.0302C0.0246396 11.8535 0 12.4316 0 17.062C0 21.6904 -1.41215e-08 22.2799 0.10614 24.0937C0.13457 25.5115 0.401815 26.9102 0.900293 28.2389C1.78921 30.5285 3.59928 32.3404 5.89265 33.2274C7.21182 33.743 8.61249 34.0349 10.034 34.0804C11.8592 34.16 12.4373 34.1846 17.0658 34.1846C21.6942 34.1846 22.2875 34.1846 24.0975 34.0804C25.5134 34.0519 26.914 33.7828 28.2408 33.2862C30.5323 32.3973 32.3423 30.5872 33.2312 28.2957C33.7297 26.969 33.997 25.5702 34.0254 24.1525C34.1069 22.3292 34.1315 21.7511 34.1315 17.1207C34.1315 12.4904 34.1315 11.9028 34.0254 10.089C34.0008 8.65229 33.7354 7.22888 33.2274 5.88697ZM30.9189 23.9535C30.9056 25.0452 30.7085 26.1274 30.3294 27.1528C29.7514 28.6445 28.5744 29.8234 27.0846 30.3958C26.0706 30.773 25.0016 30.9701 23.9194 30.9852C22.1188 31.0686 21.6108 31.0895 16.9937 31.0895C12.3729 31.0895 11.9009 31.0895 10.0662 30.9852C8.98777 30.972 7.915 30.773 6.90288 30.3958C5.40744 29.8253 4.22285 28.6464 3.64477 27.1528C3.27328 26.1407 3.07237 25.0698 3.05531 23.9895C2.97381 22.1889 2.95486 21.681 2.95486 17.0639C2.95486 12.4449 2.95486 11.9729 3.05531 10.1364C3.06858 9.04463 3.26569 7.96428 3.64477 6.93889C4.22285 5.44346 5.40744 4.26644 6.90288 3.69404C7.915 3.31876 8.98777 3.11975 10.0662 3.10459C11.8687 3.02309 12.3748 3.00034 16.9937 3.00034C21.6127 3.00034 22.0866 3.00034 23.9194 3.10459C25.0016 3.11786 26.0706 3.31687 27.0846 3.69404C28.5744 4.26834 29.7514 5.44725 30.3294 6.93889C30.7009 7.95101 30.9018 9.02188 30.9189 10.1022C31.0004 11.9047 31.0213 12.4108 31.0213 17.0298C31.0213 21.6468 31.0213 22.1434 30.9398 23.9554H30.9189V23.9535Z" fill="black"/>
</svg>
