<svg width="33" height="33" viewBox="0 0 33 33" fill="none" xmlns="http://www.w3.org/2000/svg">
<path d="M23.233 32.9325L23.4994 32.9325C24.358 32.9325 24.4221 32.5325 25.0368 31.9178L29.4336 27.5212C30.0694 26.8854 30.0694 26.7531 29.4336 26.1173L23.1202 19.8039C22.4844 19.1681 22.7414 18.9427 22.1056 19.5785L18.9708 22.6661C17.7691 22.3083 14.5076 21.2251 13.0865 19.8039C11.6653 18.3828 10.6257 15.3975 10.268 14.1959L12.8606 11.3485C13.4964 10.7127 13.4964 10.3356 12.8606 9.69981L6.77206 3.68225C6.16229 3.07247 6.36819 3.07247 5.75842 3.68225L1.36159 7.90446C0.743687 8.52236 0.72309 8.79897 0.736099 9.66566C0.773499 11.9812 0.772876 19.3788 7.11128 25.7172C13.4497 32.0556 20.9174 32.8951 23.233 32.9325ZM6.29563 6.4054L10.5006 10.6104L8.39813 12.7129C8.0095 13.0999 7.84364 13.6593 7.95746 14.1959C7.99649 14.3829 8.95099 18.8172 11.6503 21.5164C14.3495 24.2157 18.7838 25.1702 18.9708 25.2092C19.5123 25.323 20.0668 25.1572 20.4538 24.7686L22.5563 22.6661L26.7613 26.8711L23.4994 30.1313C21.4701 30.0972 14.5268 29.5524 9.07132 24.0954C3.59798 18.622 3.06788 11.6543 3.03536 9.66566L6.29563 6.4054ZM29.7715 14.9562L32.3029 15.4967C32.3029 7.15502 26.0052 0.86377 17.6521 0.86377V2.95652C23.7043 2.07716 30.2085 7.73635 29.7715 14.9562Z" fill="black"/>
<path d="M17.3705 9.17898C20.6399 8.48633 23.6839 11.4175 23.1602 14.9072H25.5008C25.5008 9.66316 22.6145 6.77689 17.3705 6.77689V9.17898Z" fill="black"/>
</svg>
